<?xml version="1.0" encoding="UTF-8" standalone="no"?>
<!-- Creator: CorelDRAW 2021 (64 Bit) -->

<svg
   xml:space="preserve"
   width="58.100357mm"
   height="52.069736mm"
   version="1.1"
   style="clip-rule:evenodd;fill-rule:evenodd;image-rendering:optimizeQuality;shape-rendering:geometricPrecision;text-rendering:geometricPrecision"
   viewBox="0 0 5810.0356 5206.9737"
   id="svg161"
   sodipodi:docname="alerta_climatico_amarelo.svg"
   inkscape:version="1.2.2 (732a01da63, 2022-12-09)"
   xmlns:inkscape="http://www.inkscape.org/namespaces/inkscape"
   xmlns:sodipodi="http://sodipodi.sourceforge.net/DTD/sodipodi-0.dtd"
   xmlns="http://www.w3.org/2000/svg"
   xmlns:svg="http://www.w3.org/2000/svg"><sodipodi:namedview
   id="namedview163"
   pagecolor="#ffffff"
   bordercolor="#000000"
   borderopacity="0.25"
   inkscape:showpageshadow="2"
   inkscape:pageopacity="0.0"
   inkscape:pagecheckerboard="0"
   inkscape:deskcolor="#d1d1d1"
   inkscape:document-units="mm"
   showgrid="false"
   inkscape:zoom="2.9542192"
   inkscape:cx="99.857182"
   inkscape:cy="92.748705"
   inkscape:window-width="1920"
   inkscape:window-height="1009"
   inkscape:window-x="-8"
   inkscape:window-y="-8"
   inkscape:window-maximized="1"
   inkscape:current-layer="Camada_x0020_1" />
 <defs
   id="defs146">
  <style
   type="text/css"
   id="style144">
   <![CDATA[
    .fil0 {fill:black}
    .fil1 {fill:#FEB700}
   ]]>
  </style>
 
   
   
   
   
   
  </defs>
 <g
   id="Camada_x0020_1"
   inkscape:label="Camada 1"
   inkscape:groupmode="layer"
   transform="translate(-11944.458,-7903.6414)">
  <metadata
   id="CorelCorpID_0Corel-Layer" />
  <path
   class="fil0"
   d="m 13168.147,9202.7937 c -1178.972,181.1798 -1141.321,1683.3593 -235.192,1989.5123 241.637,81.647 820.736,42.019 1110.765,46.256 l -374.326,594.984 c -187.072,286.282 -552.769,712.288 -196.517,962.467 116.63,81.908 267.376,61.632 427.122,61.549 h 1879.038 c 311.049,0.07 599.301,-8.764 598.865,-367.035 -0.213,-174.706 -220.99,-465.453 -338.767,-645.547 l -384.508,-606.679 c 714.083,-7.183 1433.97,152.645 1707.826,-489.262 226.056,-529.845 -104.604,-1291.3077 -901.394,-1174.4364 -21.004,-398.8602 -195.274,-654.6641 -410.509,-808.8193 -343.538,-246.049 -562.13,-185.5529 -944.718,-73.7607 -39.488,-103.5979 -108.873,-168.298 -184.752,-251.4842 -482.763,-529.2395 -1659.216,-351.5872 -1752.933,762.2553 z m 1041.131,1803.1533 c 35.697,-94.992 196.642,-326.693 263.97,-429.795 90.677,-138.868 157.29,-302.656 376.349,-301.903 220.646,0.757 285.279,168.135 374.5,304.279 74.039,112.994 223.25,320.676 264.817,427.76 318.709,2.848 638.09,0.294 956.883,0.587 1037.83,0.956 790.354,-889.819 588.383,-1067.2515 -359.924,-316.1962 -612.818,-29.4159 -756.691,-97.0947 -123.83,-80.5517 120.432,-540.1513 -333.086,-876.5633 -475.317,-352.5899 -792.758,50.0648 -918.475,-10.0308 -48.125,-23.0194 -83.195,-123.6564 -117.532,-178.0468 -43.918,-69.5716 -62.249,-105.1436 -138.728,-175.4421 -393.978,-362.1875 -962.797,-266.9946 -1251.782,174.822 -80.248,122.6982 -137.613,285.466 -138.956,474.048 -2.101,293.684 -157.626,128.0028 -401.05,222.8694 -703.684,274.2188 -633.247,1301.8878 34.696,1502.5328 201.429,60.505 940.3,32.949 1196.702,29.229 z"
   id="path149"
   style="stroke-width:0.28695" /><path
   class="fil1"
   d="m 14802.776,10514.308 c -66.268,26.625 -1036.29,1566.162 -1183.905,1805.177 -109.153,176.747 -147.506,309.568 138.994,308.892 285.427,-0.68 2197.526,18.691 2302.238,-7.047 260.243,-63.973 -91.846,-469.755 -258.772,-738.087 l -699.843,-1087.085 c -54.103,-88.452 -160.198,-337.507 -298.712,-281.85 z"
   id="path151"
   style="fill:#dac908;fill-opacity:1;stroke-width:0.28695" /><path
   class="fil0"
   d="m 14307.385,8804.8621 c 85.379,-400.8095 -659.98,-159.273 -707.19,405.936 -10.382,124.324 51.531,229.5477 154.931,166.8086 73.62,-44.6711 57.195,-193.9875 96.823,-286.1839 117.388,-273.0914 270.911,-186.1522 455.436,-286.5607 z"
   id="path153"
   style="stroke-width:0.28695" /><polygon
   class="fil0"
   points="14449.6,12528.57 14534.66,15517.34 15156.96,15554.62 15231.82,12528.6 "
   id="polygon155"
   transform="matrix(0.27753923,0,0,0.29668051,10728.164,7389.8681)" /><polygon
   class="fil0"
   points="14431.61,15872.01 14434.85,16656.27 14704.24,16674.76 14995.58,16671.65 15257.46,16657.98 15265.99,15893.75 "
   id="polygon157"
   transform="matrix(0.27753923,0,0,0.29668051,10728.164,7389.8681)" />
 </g>
</svg>
