<?xml version="1.0" encoding="UTF-8" standalone="no"?>
<!-- Creator: CorelDRAW 2021 (64 Bit) -->

<svg
   xml:space="preserve"
   width="4.1845217mm"
   height="3.5870271mm"
   version="1.1"
   style="clip-rule:evenodd;fill-rule:evenodd;image-rendering:optimizeQuality;shape-rendering:geometricPrecision;text-rendering:geometricPrecision"
   viewBox="0 0 418.45217 358.70271"
   id="svg161"
   sodipodi:docname="alerta_climatico_amarelo.svg"
   inkscape:version="1.2.2 (732a01da63, 2022-12-09)"
   xmlns:inkscape="http://www.inkscape.org/namespaces/inkscape"
   xmlns:sodipodi="http://sodipodi.sourceforge.net/DTD/sodipodi-0.dtd"
   xmlns="http://www.w3.org/2000/svg"
   xmlns:svg="http://www.w3.org/2000/svg"><sodipodi:namedview
   id="namedview163"
   pagecolor="#ffffff"
   bordercolor="#000000"
   borderopacity="0.25"
   inkscape:showpageshadow="2"
   inkscape:pageopacity="0.0"
   inkscape:pagecheckerboard="0"
   inkscape:deskcolor="#d1d1d1"
   inkscape:document-units="mm"
   showgrid="false"
   inkscape:zoom="33.423174"
   inkscape:cx="4.1887105"
   inkscape:cy="7.5396788"
   inkscape:window-width="1920"
   inkscape:window-height="1009"
   inkscape:window-x="-8"
   inkscape:window-y="-8"
   inkscape:window-maximized="1"
   inkscape:current-layer="Camada_x0020_1" />
 <defs
   id="defs146">
  <style
   type="text/css"
   id="style144">
   <![CDATA[
    .fil0 {fill:black}
    .fil1 {fill:#FEB700}
   ]]>
  </style>
 
   
   
   
   
   
  </defs>
 <g
   id="Camada_x0020_1"
   inkscape:label="Camada 1"
   inkscape:groupmode="layer"
   transform="translate(-14640.25,-10429.267)">
  <metadata
   id="CorelCorpID_0Corel-Layer" />
  <path
   class="fil0"
   d="m 14713.266,10509.186 c -95.514,13.812 -92.463,128.326 -19.055,151.664 19.577,6.224 66.491,3.204 89.988,3.527 l -30.326,45.356 c -15.155,21.824 -44.782,54.299 -15.921,73.37 9.449,6.244 21.662,4.699 34.603,4.693 h 152.228 c 25.199,0 48.553,-0.668 48.517,-27.98 -0.02,-13.319 -17.903,-35.483 -27.445,-49.211 l -31.15,-46.248 c 57.85,-0.548 116.171,11.636 138.357,-37.298 18.314,-40.391 -8.474,-98.439 -73.026,-89.529 -1.701,-30.405 -15.819,-49.906 -33.256,-61.658 -27.832,-18.756 -45.541,-14.144 -76.535,-5.623 -3.199,-7.897 -8.821,-12.829 -14.968,-19.17 -39.11,-40.345 -134.419,-26.803 -142.011,58.107 z m 84.346,137.458 c 2.891,-7.242 15.93,-24.905 21.384,-32.764 7.347,-10.586 12.743,-23.072 30.49,-23.015 17.875,0.06 23.112,12.818 30.34,23.196 5.998,8.613 18.086,24.445 21.453,32.609 25.821,0.217 51.695,0.02 77.521,0.04 84.079,0.08 64.03,-67.833 47.667,-81.358 -29.159,-24.105 -49.647,-2.243 -61.302,-7.402 -10.032,-6.141 9.757,-41.177 -26.984,-66.823 -38.507,-26.878 -64.225,3.816 -74.41,-0.764 -3.898,-1.755 -6.739,-9.427 -9.521,-13.573 -3.558,-5.303 -5.044,-8.015 -11.239,-13.374 -31.918,-27.61 -78,-20.354 -101.412,13.327 -6.501,9.353 -11.149,21.761 -11.257,36.137 -0.17,22.388 -12.77,9.758 -32.491,16.99 -57.008,20.904 -51.302,99.245 2.811,114.54 16.319,4.613 76.178,2.512 96.95,2.228 z"
   id="path149"
   style="stroke-width:0.0225504" /><path
   class="fil1"
   d="m 14845.693,10609.166 c -5.369,2.029 -83.954,119.391 -95.913,137.611 -8.843,13.473 -11.95,23.599 11.26,23.547 23.124,-0.05 178.031,1.425 186.514,-0.537 21.083,-4.876 -7.441,-35.81 -20.964,-56.265 l -56.698,-82.871 c -4.382,-6.743 -12.977,-25.728 -24.199,-21.485 z"
   id="path151"
   style="fill:#dac908;fill-opacity:1;stroke-width:0.0225504" /><path
   class="fil0"
   d="m 14805.559,10478.851 c 6.917,-30.554 -53.467,-12.141 -57.292,30.945 -0.841,9.478 4.175,17.5 12.551,12.717 5.965,-3.406 4.634,-14.788 7.845,-21.817 9.51,-20.818 21.947,-14.191 36.896,-21.845 z"
   id="path153"
   style="stroke-width:0.0225504" /><polygon
   class="fil0"
   points="14534.66,15517.34 15156.96,15554.62 15231.82,12528.6 14449.6,12528.57 "
   id="polygon155"
   transform="matrix(0.02248453,0,0,0.02261646,14515.593,10370.984)" /><polygon
   class="fil0"
   points="14434.85,16656.27 14704.24,16674.76 14995.58,16671.65 15257.46,16657.98 15265.99,15893.75 14431.61,15872.01 "
   id="polygon157"
   transform="matrix(0.02248453,0,0,0.02261646,14515.593,10370.984)" />
 </g>
</svg>
