<?xml version="1.0" encoding="UTF-8" standalone="no"?>
<!-- Creator: CorelDRAW 2021 (64 Bit) -->

<svg
   xml:space="preserve"
   width="15.759377mm"
   height="13.879282mm"
   version="1.1"
   style="clip-rule:evenodd;fill-rule:evenodd;image-rendering:optimizeQuality;shape-rendering:geometricPrecision;text-rendering:geometricPrecision"
   viewBox="0 0 1575.9378 1387.9282"
   id="svg161"
   sodipodi:docname="alerta_climatico_amarelo.svg"
   inkscape:version="1.2.2 (732a01da63, 2022-12-09)"
   xmlns:inkscape="http://www.inkscape.org/namespaces/inkscape"
   xmlns:sodipodi="http://sodipodi.sourceforge.net/DTD/sodipodi-0.dtd"
   xmlns="http://www.w3.org/2000/svg"
   xmlns:svg="http://www.w3.org/2000/svg"><sodipodi:namedview
   id="namedview163"
   pagecolor="#ffffff"
   bordercolor="#000000"
   borderopacity="0.25"
   inkscape:showpageshadow="2"
   inkscape:pageopacity="0.0"
   inkscape:pagecheckerboard="0"
   inkscape:deskcolor="#d1d1d1"
   inkscape:document-units="mm"
   showgrid="false"
   inkscape:zoom="8.3557936"
   inkscape:cx="31.834199"
   inkscape:cy="16.276132"
   inkscape:window-width="1920"
   inkscape:window-height="1009"
   inkscape:window-x="-8"
   inkscape:window-y="-8"
   inkscape:window-maximized="1"
   inkscape:current-layer="Camada_x0020_1" />
 <defs
   id="defs146">
  <style
   type="text/css"
   id="style144">
   <![CDATA[
    .fil0 {fill:black}
    .fil1 {fill:#FEB700}
   ]]>
  </style>
 
   
   
   
   
   
  </defs>
 <g
   id="Camada_x0020_1"
   inkscape:label="Camada 1"
   inkscape:groupmode="layer"
   transform="translate(-14061.507,-9914.6542)">
  <metadata
   id="CorelCorpID_0Corel-Layer" />
  <path
   class="fil0"
   d="m 14355.599,10237.223 c -347.43,51.371 -336.332,477.273 -69.315,564.074 71.214,23.15 241.861,11.916 327.33,13.118 l -110.309,168.689 c -55.126,81.168 -162.892,201.951 -57.913,272.88 34.371,23.224 78.794,17.477 125.869,17.455 h 553.723 c 91.663,0 176.613,-2.486 176.48,-104.065 -0.06,-49.535 -65.121,-131.967 -99.829,-183.027 l -113.308,-172.006 c 210.428,-2.04 422.569,43.277 503.269,-138.719 66.618,-150.223 -30.822,-366.118 -265.63,-332.98 -6.187,-113.084 -57.54,-185.613 -120.967,-229.322 -101.238,-69.758 -165.653,-52.604 -278.394,-20.911 -11.637,-29.373 -32.086,-47.714 -54.446,-71.298 -142.262,-150.0518 -488.945,-99.6888 -516.56,216.112 z m 306.806,511.238 c 10.515,-26.934 57.943,-92.627 77.784,-121.855 26.724,-39.371 46.351,-85.811 110.905,-85.599 65.02,0.223 84.068,47.673 110.361,86.271 21.818,32.034 65.787,90.916 78.035,121.28 93.924,0.808 188.04,0.07 281.982,0.158 305.835,0.299 232.906,-252.285 173.387,-302.589 -106.066,-89.651 -180.59,-8.341 -222.984,-27.528 -36.494,-22.841 35.49,-153.147 -98.154,-248.532 -140.07,-99.964 -233.617,14.192 -270.665,-2.84 -14.178,-6.528 -24.513,-35.062 -34.632,-50.483 -12.942,-19.722 -18.348,-29.81 -40.882,-49.739 -116.099,-102.6898 -283.724,-75.7024 -368.883,49.564 -23.647,34.786 -40.554,80.935 -40.947,134.403 -0.619,83.267 -46.452,36.293 -118.185,63.189 -207.366,77.748 -186.61,369.115 10.223,426.001 59.361,17.159 277.095,9.342 352.655,8.287 z"
   id="path149"
   style="stroke-width:0.0829432" /><path
   class="fil1"
   d="m 14837.297,10609.07 c -19.528,7.548 -305.381,444.046 -348.881,511.81 -32.165,50.11 -43.467,87.769 40.958,87.578 84.115,-0.198 647.584,5.298 678.441,-1.999 76.688,-18.134 -27.066,-133.186 -76.256,-209.263 l -206.237,-308.217 c -15.94,-25.078 -47.204,-95.687 -88.025,-79.909 z"
   id="path151"
   style="fill:#dac908;fill-opacity:1;stroke-width:0.0829432" /><path
   class="fil0"
   d="m 14691.311,10124.402 c 25.161,-113.639 -194.484,-45.158 -208.398,115.092 -3.059,35.248 15.187,65.085 45.653,47.296 21.7,-12.668 16.856,-55 28.537,-81.144 34.593,-77.425 79.832,-52.777 134.208,-81.244 z"
   id="path153"
   style="stroke-width:0.0829432" /><polygon
   class="fil0"
   points="14449.6,12528.57 14534.66,15517.34 15156.96,15554.62 15231.82,12528.6 "
   id="polygon155"
   transform="matrix(0.0817869,0,0,0.08411583,13636.567,9723.2192)" /><polygon
   class="fil0"
   points="14431.61,15872.01 14434.85,16656.27 14704.24,16674.76 14995.58,16671.65 15257.46,16657.98 15265.99,15893.75 "
   id="polygon157"
   transform="matrix(0.0817869,0,0,0.08411583,13636.567,9723.2192)" />
 </g>
</svg>
