<?xml version="1.0" encoding="UTF-8" standalone="no"?>
<!-- Creator: CorelDRAW 2021 (64 Bit) -->

<svg
   xml:space="preserve"
   width="186.10684mm"
   height="158.60263mm"
   version="1.1"
   style="clip-rule:evenodd;fill-rule:evenodd;image-rendering:optimizeQuality;shape-rendering:geometricPrecision;text-rendering:geometricPrecision"
   viewBox="0 0 18610.684 15860.263"
   id="svg161"
   sodipodi:docname="alerta_climatico_amarelo.svg"
   inkscape:version="1.2.2 (732a01da63, 2022-12-09)"
   xmlns:inkscape="http://www.inkscape.org/namespaces/inkscape"
   xmlns:sodipodi="http://sodipodi.sourceforge.net/DTD/sodipodi-0.dtd"
   xmlns="http://www.w3.org/2000/svg"
   xmlns:svg="http://www.w3.org/2000/svg"><sodipodi:namedview
   id="namedview163"
   pagecolor="#ffffff"
   bordercolor="#000000"
   borderopacity="0.25"
   inkscape:showpageshadow="2"
   inkscape:pageopacity="0.0"
   inkscape:pagecheckerboard="0"
   inkscape:deskcolor="#d1d1d1"
   inkscape:document-units="mm"
   showgrid="false"
   inkscape:zoom="1.0444742"
   inkscape:cx="299.67231"
   inkscape:cy="299.67231"
   inkscape:window-width="1920"
   inkscape:window-height="1009"
   inkscape:window-x="-8"
   inkscape:window-y="-8"
   inkscape:window-maximized="1"
   inkscape:current-layer="Camada_x0020_1" />
 <defs
   id="defs146">
  <style
   type="text/css"
   id="style144">
   <![CDATA[
    .fil0 {fill:black}
    .fil1 {fill:#FEB700}
   ]]>
  </style>
 </defs>
 <g
   id="Camada_x0020_1"
   inkscape:label="Camada 1"
   inkscape:groupmode="layer"
   transform="translate(-5544.134,-2576.9965)">
  <metadata
   id="CorelCorpID_0Corel-Layer" />
  <g
   id="_2682714049232">
   <path
   class="fil0"
   d="m 8791.49,6110.7 c -4247.95,610.69 -4112.29,5673.98 -847.42,6705.91 870.64,275.2 2957.19,141.63 4002.19,155.91 l -1348.73,2005.47 c -674.04,964.95 -1991.68,2400.86 -708.07,3244.12 420.23,276.08 963.38,207.74 1538.96,207.46 h 6770.35 c 1120.74,0.25 2159.34,-29.54 2157.77,-1237.14 -0.77,-588.87 -796.25,-1568.87 -1220.61,-2175.9 l -1385.42,-2044.89 c 2572.91,-24.21 5166.73,514.51 6153.46,-1649.12 814.5,-1785.91 -376.9,-4352.52 -3247.81,-3958.59 -75.68,-1344.41 -703.59,-2206.63 -1479.1,-2726.23 -1237.8,-829.34 -2025.41,-625.43 -3403.91,-248.62 -142.28,-349.19 -392.28,-567.27 -665.68,-847.66 C 13368.03,1757.55 9129.16,2356.35 8791.49,6110.7 Z m 3751.29,6077.76 c 128.62,-320.18 708.52,-1101.16 951.11,-1448.68 326.72,-468.07 566.73,-1020.14 1356.02,-1017.6 795.01,2.55 1027.89,566.72 1349.36,1025.61 266.77,380.86 804.39,1080.88 954.16,1441.82 1148.34,9.6 2299.1,0.99 3447.74,1.98 3739.4,3.22 2847.72,-2999.25 2120,-3597.31 -1296.84,-1065.78 -2208.04,-99.15 -2726.43,-327.27 -446.17,-271.51 433.93,-1820.65 -1200.14,-2954.57 -1712.61,-1188.45 -2856.38,168.75 -3309.35,-33.81 -173.4,-77.59 -299.76,-416.8 -423.48,-600.13 -158.24,-234.5 -224.29,-354.4 -499.85,-591.35 -1419.54,-1220.8 -3469.05,-899.94 -4510.29,589.26 -289.14,413.57 -495.83,962.2 -500.67,1597.84 -7.57,989.9 -567.94,431.45 -1445.02,751.21 -2535.44,924.29 -2281.65,4388.18 125.01,5064.48 725.77,203.94 3387.99,111.06 4311.83,98.52 z"
   id="path149" />
   <path
   class="fil1"
   d="m 14681.21,10531.33 c -238.77,89.74 -3733.85,5278.95 -4265.72,6084.58 -393.29,595.75 -531.48,1043.44 500.81,1041.16 1028.42,-2.29 7917.89,63 8295.18,-23.75 937.68,-215.63 -330.93,-1583.37 -932.38,-2487.82 l -2521.6,-3664.16 c -194.94,-298.14 -577.21,-1137.61 -1076.29,-950.01 z"
   id="path151"
   style="fill:#dac908;opacity:1;fill-opacity:1" />
   <path
   class="fil0"
   d="m 12896.27,4769.42 c 307.63,-1350.98 -2377.97,-536.85 -2548.07,1368.26 -37.41,419.05 185.67,773.72 558.23,562.25 265.26,-150.57 206.08,-653.86 348.86,-964.62 422.96,-920.49 976.12,-627.45 1640.98,-965.89 z"
   id="path153" />
   <polygon
   class="fil0"
   points="15231.82,12528.6 14449.6,12528.57 14534.66,15517.34 15156.96,15554.62 "
   id="polygon155" />
   <polygon
   class="fil0"
   points="14995.58,16671.65 15257.46,16657.98 15265.99,15893.75 14431.61,15872.01 14434.85,16656.27 14704.24,16674.76 "
   id="polygon157" />
  </g>
 </g>
</svg>
