<?xml version="1.0" encoding="UTF-8" standalone="no"?>
<!-- Creator: CorelDRAW 2021 (64 Bit) -->

<svg
   xml:space="preserve"
   width="6.8918462mm"
   height="6.1043649mm"
   version="1.1"
   style="clip-rule:evenodd;fill-rule:evenodd;image-rendering:optimizeQuality;shape-rendering:geometricPrecision;text-rendering:geometricPrecision"
   viewBox="0 0 689.18462 610.43649"
   id="svg161"
   sodipodi:docname="alerta_climatico_amarelo.svg"
   inkscape:version="1.2.2 (732a01da63, 2022-12-09)"
   xmlns:inkscape="http://www.inkscape.org/namespaces/inkscape"
   xmlns:sodipodi="http://sodipodi.sourceforge.net/DTD/sodipodi-0.dtd"
   xmlns="http://www.w3.org/2000/svg"
   xmlns:svg="http://www.w3.org/2000/svg"><sodipodi:namedview
   id="namedview163"
   pagecolor="#ffffff"
   bordercolor="#000000"
   borderopacity="0.25"
   inkscape:showpageshadow="2"
   inkscape:pageopacity="0.0"
   inkscape:pagecheckerboard="0"
   inkscape:deskcolor="#d1d1d1"
   inkscape:document-units="mm"
   showgrid="false"
   inkscape:zoom="23.633753"
   inkscape:cx="15.317076"
   inkscape:cy="11.974399"
   inkscape:window-width="1920"
   inkscape:window-height="1009"
   inkscape:window-x="-8"
   inkscape:window-y="-8"
   inkscape:window-maximized="1"
   inkscape:current-layer="Camada_x0020_1" />
 <defs
   id="defs146">
  <style
   type="text/css"
   id="style144">
   <![CDATA[
    .fil0 {fill:black}
    .fil1 {fill:#FEB700}
   ]]>
  </style>
 
   
   
   
   
   
  </defs>
 <g
   id="Camada_x0020_1"
   inkscape:label="Camada 1"
   inkscape:groupmode="layer"
   transform="translate(-14504.884,-10303.4)">
  <metadata
   id="CorelCorpID_0Corel-Layer" />
  <path
   class="fil0"
   d="m 14625.14,10439.405 c -157.31,23.506 -152.285,218.384 -31.384,258.101 32.244,10.592 109.51,5.452 148.209,6.002 l -49.946,77.186 c -24.96,37.14 -73.755,92.406 -26.222,124.861 15.563,10.626 35.677,7.996 56.991,7.986 h 250.717 c 41.503,0 79.967,-1.137 79.907,-47.616 -0.03,-22.666 -29.486,-60.384 -45.201,-83.747 l -51.304,-78.704 c 95.278,-0.933 191.332,19.802 227.872,-63.473 30.163,-68.737 -13.956,-167.523 -120.273,-152.36 -2.801,-51.743 -26.053,-84.93 -54.772,-104.929 -45.839,-31.919 -75.005,-24.07 -126.052,-9.569 -5.269,-13.439 -14.528,-21.832 -24.652,-32.623 -64.414,-68.659 -221.386,-45.614 -233.89,98.885 z m 138.917,233.925 c 4.761,-12.324 26.236,-42.383 35.219,-55.757 12.1,-18.015 20.987,-39.264 50.216,-39.167 29.44,0.102 38.065,21.814 49.97,39.475 9.878,14.657 29.787,41.6 35.333,55.493 42.526,0.37 85.141,0.03 127.676,0.07 138.477,0.137 105.456,-115.437 78.507,-138.454 -48.025,-41.021 -81.768,-3.817 -100.964,-12.596 -16.523,-10.451 16.07,-70.075 -44.442,-113.719 -63.421,-45.741 -105.778,6.494 -122.553,-1.3 -6.419,-2.987 -11.099,-16.043 -15.68,-23.099 -5.86,-9.024 -8.308,-13.64 -18.511,-22.759 -52.568,-46.987 -128.465,-34.639 -167.024,22.679 -10.707,15.917 -18.362,37.033 -18.54,61.498 -0.28,38.1 -21.032,16.606 -53.512,28.913 -93.892,35.575 -84.494,168.894 4.629,194.923 26.877,7.851 125.464,4.275 159.676,3.792 z"
   id="path149"
   style="stroke-width:0.0377531" /><path
   class="fil1"
   d="m 14843.245,10609.55 c -8.842,3.453 -138.271,203.179 -157.967,234.186 -14.564,22.928 -19.682,40.16 18.545,40.072 38.085,-0.09 293.215,2.425 307.186,-0.914 34.723,-8.298 -12.255,-60.941 -34.527,-95.752 l -93.381,-141.029 c -7.217,-11.475 -21.373,-43.783 -39.856,-36.563 z"
   id="path151"
   style="fill:#dac908;fill-opacity:1;stroke-width:0.0377531" /><path
   class="fil0"
   d="m 14777.145,10387.782 c 11.392,-51.997 -88.059,-20.662 -94.359,52.662 -1.385,16.129 6.876,29.781 20.671,21.641 9.825,-5.796 7.632,-25.166 12.921,-37.128 15.663,-35.428 36.146,-24.15 60.767,-37.175 z"
   id="path153"
   style="stroke-width:0.0377531" /><polygon
   class="fil0"
   points="14449.6,12528.57 14534.66,15517.34 15156.96,15554.62 15231.82,12528.6 "
   id="polygon155"
   transform="matrix(0.03703171,0,0,0.03848847,14299.575,10204.215)" /><polygon
   class="fil0"
   points="15257.46,16657.98 15265.99,15893.75 14431.61,15872.01 14434.85,16656.27 14704.24,16674.76 14995.58,16671.65 "
   id="polygon157"
   transform="matrix(0.03703171,0,0,0.03848847,14299.575,10204.215)" />
 </g>
</svg>
